<?xml version="1.0" standalone="no"?>
<!DOCTYPE svg PUBLIC "-//W3C//DTD SVG 20010904//EN"
 "http://www.w3.org/TR/2001/REC-SVG-20010904/DTD/svg10.dtd">
<svg version="1.0" xmlns="http://www.w3.org/2000/svg"
 width="512.000000pt" height="512.000000pt" viewBox="0 0 512.000000 512.000000"
 preserveAspectRatio="xMidYMid meet">

<g transform="translate(0.000000,512.000000) scale(0.100000,-0.100000)"
fill="#000000" stroke="none">
<path d="M510 4090 l0 -400 670 0 670 0 -2 398 -3 397 -667 3 -668 2 0 -400z
m1280 0 l0 -340 -615 0 -615 0 0 333 c0 184 3 337 7 340 3 4 280 7 615 7 l608
0 0 -340z"/>
<path d="M1897 4483 c-4 -3 -7 -183 -7 -400 l0 -393 670 0 670 0 -2 398 -3
397 -661 3 c-363 1 -664 -1 -667 -5z m1273 -393 l0 -340 -610 0 -610 0 0 340
0 340 610 0 610 0 0 -340z"/>
<path d="M3277 4483 c-4 -3 -7 -183 -7 -400 l0 -393 670 0 670 0 0 400 0 400
-663 0 c-365 0 -667 -3 -670 -7z m1281 -395 l2 -338 -615 0 -615 0 0 340 0
340 613 -2 612 -3 3 -337z"/>
<path d="M510 3245 l0 -395 156 0 155 0 -3 28 -3 27 -128 3 -127 3 2 337 3
337 613 3 612 2 0 -340 0 -340 -114 0 c-109 0 -114 -1 -120 -22 -3 -13 -6 -26
-6 -30 0 -5 68 -8 150 -8 l150 0 0 395 0 395 -670 0 -670 0 0 -395z"/>
<path d="M1890 3245 l0 -395 220 0 220 0 0 -75 0 -75 -50 0 c-49 0 -50 -1 -50
-30 l0 -30 -319 -2 -319 -3 67 -115 66 -115 835 0 834 0 67 115 67 115 -319 3
-319 2 0 30 c0 29 -2 30 -45 30 l-45 0 0 75 0 75 215 0 215 0 0 395 0 395
-670 0 -670 0 0 -395z m1280 5 l0 -340 -610 0 -610 0 0 340 0 340 610 0 610 0
0 -340z"/>
<path d="M3270 3245 l0 -395 151 0 151 0 -6 23 c-3 12 -6 25 -6 30 0 4 -52 7
-115 7 l-115 0 0 340 0 340 613 -2 612 -3 3 -337 2 -337 -127 -3 -128 -3 -3
-27 -3 -28 155 0 156 0 0 395 0 395 -670 0 -670 0 0 -395z"/>
<path d="M1122 3249 c-141 -27 -252 -160 -252 -302 0 -73 13 -112 53 -157 19
-21 38 -47 42 -59 6 -21 11 -21 224 -21 l219 0 27 36 c85 112 86 278 0 389
-37 49 -105 93 -171 110 -64 16 -78 17 -142 4z"/>
<path d="M3850 3244 c-96 -26 -163 -85 -208 -183 -21 -46 -24 -63 -20 -135 5
-83 18 -121 65 -183 l24 -33 219 0 c214 0 219 0 225 21 4 12 22 38 40 58 84
93 66 270 -38 374 -78 78 -202 110 -307 81z"/>
<path d="M180 2777 c-14 -7 -34 -28 -44 -48 l-19 -36 157 -629 c89 -355 166
-642 177 -660 32 -53 207 -114 325 -114 24 0 34 -5 34 -15 0 -10 10 -15 30
-15 l30 0 0 -148 0 -148 -107 -33 c-309 -93 -303 -91 -303 -114 0 -11 -10 -31
-22 -44 -27 -29 -29 -84 -3 -113 25 -28 87 -27 115 2 26 28 26 78 0 106 -12
12 -19 22 -17 22 3 0 78 23 167 50 89 28 164 50 166 50 2 0 4 -22 4 -50 0 -37
-5 -55 -20 -70 -27 -27 -27 -83 0 -110 27 -27 83 -27 110 0 27 27 27 83 0 110
-15 15 -20 33 -20 70 0 28 2 50 4 50 4 0 228 -67 303 -91 l32 -10 -19 -22
c-26 -27 -26 -77 0 -105 28 -29 90 -30 115 -2 26 29 24 84 -3 113 -12 13 -22
33 -22 44 0 18 -15 26 -102 53 -57 17 -149 46 -205 63 l-103 32 0 148 0 147
30 0 c18 0 30 5 30 13 0 8 30 17 89 25 119 16 218 52 255 93 l29 33 -22 18
c-13 9 -44 20 -69 24 l-47 6 -155 627 c-135 544 -158 630 -182 656 l-26 30
-334 3 c-255 2 -339 -1 -358 -11z"/>
<path d="M4254 2780 c-12 -4 -30 -19 -40 -32 -12 -16 -73 -242 -174 -650
l-155 -626 -47 -6 c-25 -4 -57 -15 -69 -25 l-23 -19 35 -35 c42 -42 157 -82
267 -92 51 -6 72 -12 72 -21 0 -9 11 -14 30 -14 l30 0 0 -147 0 -148 -103 -32
c-56 -17 -148 -46 -204 -63 -88 -27 -103 -35 -103 -53 0 -11 -10 -31 -22 -44
-27 -29 -29 -84 -3 -113 25 -28 87 -27 115 2 26 28 26 76 -1 104 l-21 22 34
10 c74 24 300 92 304 92 2 0 4 -22 4 -50 0 -37 -5 -55 -20 -70 -12 -12 -20
-33 -20 -55 0 -46 29 -75 75 -75 46 0 75 29 75 75 0 22 -8 43 -20 55 -15 15
-20 33 -20 70 0 28 2 50 4 50 2 0 77 -23 166 -50 89 -28 164 -50 167 -50 2 0
-5 -10 -17 -22 -46 -49 -13 -128 54 -128 73 0 108 80 58 133 -12 13 -22 33
-22 44 0 23 6 21 -302 114 l-108 33 0 148 0 148 30 0 c20 0 30 5 30 15 0 11
11 15 35 15 64 0 189 30 252 61 51 24 65 37 81 72 11 23 88 317 172 654 l152
612 -18 38 c-11 21 -30 43 -44 50 -29 15 -651 17 -686 3z"/>
<path d="M984 2653 c3 -10 64 -254 136 -543 72 -289 135 -541 141 -561 8 -33
14 -38 57 -49 55 -13 92 -44 92 -76 0 -48 -81 -110 -190 -147 -12 -3 -23 -46
-43 -158 -31 -173 -31 -179 -16 -179 6 0 62 -16 125 -36 l114 -36 0 -33 c0
-38 25 -67 34 -38 5 18 106 585 106 597 0 3 32 6 71 6 69 0 71 -1 66 -22 -3
-13 -27 -146 -53 -295 l-48 -273 20 -47 c48 -115 211 -125 270 -17 28 51 160
786 150 837 -9 46 -39 83 -87 107 -34 18 -59 20 -209 20 l-170 0 0 243 c1 265
-3 256 59 148 18 -32 44 -64 57 -70 16 -7 109 -11 260 -11 l236 0 29 29 c54
55 29 139 -49 161 -20 5 -113 10 -207 10 l-170 1 -115 201 c-63 110 -128 211
-143 224 -28 24 -30 24 -278 24 -234 0 -250 -1 -245 -17z"/>
<path d="M3613 2646 c-15 -13 -80 -114 -143 -224 l-115 -201 -170 -1 c-93 0
-187 -5 -207 -10 -78 -22 -103 -106 -49 -161 l29 -29 236 0 c151 0 244 4 259
11 14 6 43 43 67 85 23 41 44 74 46 74 2 0 4 -108 4 -240 l0 -240 -171 0
c-137 0 -178 -3 -205 -16 -45 -22 -82 -66 -90 -110 -8 -41 120 -779 144 -832
52 -114 232 -105 278 14 l18 46 -48 272 c-26 149 -50 281 -53 294 -5 21 -3 22
66 22 39 0 71 -3 71 -7 0 -11 98 -562 105 -591 8 -35 35 -9 35 33 l0 33 114
36 c63 20 119 36 125 36 16 0 13 26 -17 189 l-27 144 -60 21 c-73 26 -145 90
-145 129 0 36 32 63 91 77 44 11 50 15 58 48 6 21 69 273 141 562 72 289 133
533 136 543 5 16 -11 17 -245 17 -248 0 -250 0 -278 -24z"/>
<path d="M1760 2355 c0 -3 9 -24 20 -45 l20 -40 120 0 c73 0 120 4 120 10 0 6
16 10 35 10 19 0 35 -4 35 -9 0 -15 61 -19 67 -4 3 7 20 13 39 13 27 0 34 -4
34 -20 0 -11 -7 -20 -15 -20 -19 0 -19 -14 -1 -30 23 -19 49 -96 42 -125 l-6
-25 287 0 288 0 1 49 c0 37 7 58 27 85 31 40 33 46 12 46 -8 0 -15 9 -15 20 0
16 7 20 34 20 19 0 36 -6 39 -13 6 -15 67 -11 67 4 0 5 16 9 35 9 19 0 35 -4
35 -10 0 -6 47 -10 120 -10 l120 0 20 40 c11 21 20 42 20 45 0 3 -360 5 -800
5 -440 0 -800 -2 -800 -5z m630 -85 c0 -17 -7 -20 -40 -20 -27 0 -40 4 -40 13
0 21 11 27 47 27 26 0 33 -4 33 -20z m140 0 c0 -17 -7 -20 -40 -20 -27 0 -40
4 -40 13 0 21 11 27 47 27 26 0 33 -4 33 -20z m138 -2 c3 -15 -4 -18 -37 -18
-35 0 -41 3 -41 21 0 17 5 20 37 17 27 -2 39 -8 41 -20z m140 0 c3 -15 -4 -18
-37 -18 -35 0 -41 3 -41 21 0 17 5 20 37 17 27 -2 39 -8 41 -20z m-428 -103
c0 -22 -4 -25 -40 -25 -36 0 -40 3 -40 25 0 23 4 25 40 25 36 0 40 -2 40 -25z
m142 19 c3 -3 4 -14 1 -25 -4 -14 -14 -19 -39 -19 -30 0 -34 3 -34 25 0 22 4
25 33 25 19 0 36 -3 39 -6z m148 -19 c0 -22 -4 -25 -34 -25 -37 0 -51 12 -42
35 3 9 19 15 41 15 31 0 35 -3 35 -25z m150 0 c0 -22 -4 -25 -40 -25 -36 0
-40 3 -40 25 0 23 4 25 40 25 36 0 40 -2 40 -25z"/>
<path d="M98 2012 l-98 -87 0 -77 0 -78 146 0 c134 0 145 1 140 18 -3 9 -22
83 -42 165 -20 81 -39 147 -43 146 -3 0 -50 -39 -103 -87z"/>
<path d="M4876 1953 c-20 -82 -39 -156 -42 -165 -5 -17 6 -18 140 -18 l146 0
0 78 0 77 -100 88 c-54 48 -101 87 -103 87 -3 0 -21 -66 -41 -147z"/>
<path d="M2229 2003 c-32 -38 -71 -43 -309 -43 -182 0 -238 3 -267 15 -19 8
-37 15 -39 15 -2 0 -4 -49 -4 -110 l0 -110 950 0 950 0 0 110 c0 61 -2 110 -4
110 -2 0 -20 -7 -39 -15 -29 -12 -85 -15 -267 -15 -238 0 -277 5 -309 43 -12
15 -48 17 -331 17 -283 0 -319 -2 -331 -17z"/>
<path d="M1130 781 c0 -14 44 -74 58 -79 8 -2 12 8 12 31 0 30 -4 37 -31 46
-38 13 -39 13 -39 2z"/>
<path d="M3948 778 c-23 -8 -28 -16 -28 -45 0 -42 16 -40 48 7 34 51 31 57
-20 38z"/>
</g>
</svg>
