<svg xmlns="http://www.w3.org/2000/svg" viewBox="0 0 64 64" xml:space="preserve"><path fill="#BE2814" d="M42 52v-8h2c.963 0 1.874.228 2.682.633a13.925 13.925 0 0 1 3.419-5.562l1.899-1.9 1.899 1.9a13.925 13.925 0 0 1 3.419 5.562A5.969 5.969 0 0 1 60 44V12H24v6h6l-8 16V24h-6V12H4v44h38.841A9.93 9.93 0 0 1 42 52z"/><path fill="#FA6450" d="M4 12h12v8H4z"/><path fill="#DC4632" d="M4 12h4v8H4z"/><path fill="#FA6450" d="M34 24h16v8H34zM4 24h6v8H4z"/><path fill="#DC4632" d="M4 24h4v8H4z"/><path fill="#FA6450" d="M54 24h6v8h-6zM44 12h16v8H44zM4 36h16v8H4z"/><path fill="#DC4632" d="M4 36h4v8H4z"/><path fill="#FA6450" d="M24 36h16v8H24zM14 48h16v8H14zM4 48h6v8H4z"/><path fill="#DC4632" d="M4 48h4v8H4z"/><path fill="#FA6450" d="m50.101 39.071 1.899-1.9 1.899 1.9a13.925 13.925 0 0 1 3.419 5.562A5.969 5.969 0 0 1 60 44v-8H44v8c.963 0 1.874.228 2.682.633a13.927 13.927 0 0 1 3.419-5.562zM42 52v-4h-8v8h8.841A9.93 9.93 0 0 1 42 52z"/><path fill="#FAB400" d="M56 50v-1.029c0-3.183-1.264-6.235-3.515-8.485L52 40l-.485.485A12 12 0 0 0 48 48.971V50a4 4 0 0 0-4-4v6a8 8 0 0 0 16 0v-6a4 4 0 0 0-4 4z"/><path fill="#DC9600" d="M46 52v-5.445A3.955 3.955 0 0 0 44 46v6a8 8 0 0 0 8 8c.339 0 .672-.028 1-.069-3.945-.493-7-3.852-7-7.931z"/><path fill="#FA6450" d="m52 47.143-2.93 8.791a3.089 3.089 0 1 0 5.86 0L52 47.143zM30 18l-1 2h11v-8H24v6zM30 32v-8h-3l-4 8zM16 24h-2v8h8v-8z"/></svg>