<?xml version="1.0" encoding="UTF-8"?>
<!DOCTYPE svg PUBLIC "-//W3C//DTD SVG 1.1//EN" "http://www.w3.org/Graphics/SVG/1.1/DTD/svg11.dtd">
<!-- Creator: CorelDRAW -->
<svg xmlns="http://www.w3.org/2000/svg" xml:space="preserve" width="2048px" height="2048px" style="shape-rendering:geometricPrecision; text-rendering:geometricPrecision; image-rendering:optimizeQuality; fill-rule:evenodd; clip-rule:evenodd"
viewBox="0 0 2048 2048"
 xmlns:xlink="http://www.w3.org/1999/xlink">
 <defs>
  <style type="text/css">
   <![CDATA[
    .fil0 {fill:none}
    .fil5 {fill:#253B4B}
    .fil1 {fill:#3D5263}
    .fil6 {fill:#EEEEEE}
    .fil4 {fill:#EF5350}
    .fil3 {fill:#FBC02D}
    .fil2 {fill:#253B4B;fill-rule:nonzero}
   ]]>
  </style>
 </defs>
 <g id="Layer_x0020_1">
  <metadata id="CorelCorpID_0Corel-Layer"/>
  <rect class="fil0" x="256.019" y="256.073" width="1535.96" height="1535.85"/>
  <rect class="fil0" width="2048" height="2048"/>
  <g id="_527597440">
   <path id="_527576776" class="fil1" d="M784.407 286.72l831.187 0c20.5122,0 39.3201,8.13544 53.0965,21.3189l0.120473 0c14.0162,13.4138 22.7091,32.0079 22.7091,52.6619l0 1326.6c0,20.5866 -8.70709,39.2091 -22.7457,52.6441l-0.120473 0c-13.7646,13.1693 -32.5547,21.3366 -53.0599,21.3366l-831.187 0c-20.5016,0 -39.2941,-8.16733 -53.0587,-21.3402 -14.113,-13.5036 -22.8685,-32.1284 -22.8685,-52.6406l0 -1326.6c0,-20.654 8.6941,-39.2457 22.7103,-52.6595l0.120473 0c13.7799,-13.1858 32.5902,-21.3213 53.0965,-21.3213z"/>
   <path id="_527593192" class="fil2" d="M391.941 304.263c22.7953,-29.8122 54.5646,-48.2611 89.895,-48.2611l103.765 0 1.15866 0 102.611 0c35.2831,0 67.0666,18.463 89.8761,48.2989 21.9024,28.6453 35.4756,67.9536 35.4756,111.116l0 1217.16c0,43.174 -13.5709,82.48 -35.4709,111.124 -22.8118,29.8382 -54.5965,48.2977 -89.8808,48.2977l-103.701 0 -0.068504 0 -103.765 0c-35.3339,0 -67.1032,-18.4441 -89.8985,-48.2599 -21.9071,-28.6524 -35.4579,-67.9737 -35.4579,-111.162l0 -1217.16c0,-43.1764 13.5532,-82.4989 35.4614,-111.154z"/>
   <g>
    <path id="_527582872" class="fil3" d="M1023 1323.12l-57.4748 0c-15.3579,0 -29.315,-6.32008 -39.4571,-16.5095 -10.1079,-10.1539 -16.3654,-24.1181 -16.3654,-39.4418l0 -57.7571c0,-15.3213 6.25749,-29.2878 16.3654,-39.4418 10.1421,-10.1882 24.0992,-16.5095 39.4571,-16.5095l57.4748 0c15.3591,0 29.3185,6.3189 39.4642,16.5083 10.1079,10.1551 16.3665,24.1181 16.3665,39.4429l0 57.7571c0,15.326 -6.25867,29.2878 -16.3665,39.4418 -10.1457,10.1906 -24.1051,16.5095 -39.4642,16.5095z"/>
    <path id="_527594584" class="fil3" d="M1475.42 1323.12l-57.476 0c-15.3555,0 -29.3138,-6.32008 -39.4559,-16.5095 -10.1067,-10.1539 -16.3642,-24.1181 -16.3642,-39.4418l0 -57.7571c0,-15.3213 6.25749,-29.2878 16.3642,-39.4418 10.1421,-10.1882 24.1004,-16.5095 39.4559,-16.5095l57.476 0c15.3602,0 29.3197,6.3189 39.4642,16.5083 10.1079,10.1551 16.3665,24.1181 16.3665,39.4429l0 57.7571c0,15.326 -6.25867,29.2878 -16.3665,39.4418 -10.1445,10.1906 -24.104,16.5095 -39.4642,16.5095z"/>
    <path id="_527585872" class="fil3" d="M1249.21 1323.12l-57.4772 0c-15.3555,0 -29.3138,-6.32008 -39.4559,-16.5095 -10.1067,-10.1539 -16.3654,-24.1181 -16.3654,-39.4418l0 -57.7571c0,-15.3213 6.25867,-29.2878 16.3654,-39.4418 10.1421,-10.1882 24.1004,-16.5095 39.4559,-16.5095l57.4772 0c15.3591,0 29.3173,6.3189 39.463,16.5083 10.1079,10.1551 16.3665,24.1181 16.3665,39.4429l0 57.7571c0,15.326 -6.25867,29.2878 -16.3665,39.4418 -10.1457,10.1906 -24.104,16.5095 -39.463,16.5095z"/>
    <path id="_527585896" class="fil4" d="M1023 1549.33l-57.4748 0c-15.3579,0 -29.315,-6.32126 -39.4571,-16.5095 -10.1079,-10.1539 -16.3654,-24.1181 -16.3654,-39.4406l0 -57.7583c0,-15.3201 6.25749,-29.2866 16.3654,-39.4406 10.1421,-10.1894 24.0992,-16.5095 39.4571,-16.5095l57.4748 0c15.3591,0 29.3185,6.31772 39.4642,16.5083 10.1079,10.1551 16.3665,24.1169 16.3665,39.4418l0 57.7583c0,15.3248 -6.25867,29.2866 -16.3665,39.4418 -10.1457,10.1894 -24.1051,16.5083 -39.4642,16.5083z"/>
    <path id="_527593576" class="fil4" d="M1475.42 1549.33l-57.476 0c-15.3555,0 -29.3138,-6.32126 -39.4559,-16.5095 -10.1067,-10.1539 -16.3642,-24.1181 -16.3642,-39.4406l0 -57.7583c0,-15.3201 6.25749,-29.2866 16.3642,-39.4406 10.1421,-10.1894 24.1004,-16.5095 39.4559,-16.5095l57.476 0c15.3602,0 29.3197,6.31772 39.4642,16.5083 10.1079,10.1551 16.3665,24.1169 16.3665,39.4418l0 57.7583c0,15.3248 -6.25867,29.2866 -16.3665,39.4418 -10.1445,10.1894 -24.104,16.5083 -39.4642,16.5083z"/>
    <path id="_527580880" class="fil4" d="M1249.21 1549.33l-57.4772 0c-15.3555,0 -29.3138,-6.32126 -39.4559,-16.5095 -10.1067,-10.1539 -16.3654,-24.1181 -16.3654,-39.4406l0 -57.7583c0,-15.3201 6.25867,-29.2866 16.3654,-39.4406 10.1421,-10.1894 24.1004,-16.5095 39.4559,-16.5095l57.4772 0c15.3591,0 29.3173,6.31772 39.463,16.5083 10.1079,10.1551 16.3665,24.1169 16.3665,39.4418l0 57.7583c0,15.3248 -6.25867,29.2866 -16.3665,39.4418 -10.1457,10.1894 -24.104,16.5083 -39.463,16.5083z"/>
    <path id="_527589976" class="fil4" d="M1023 1096.91l-57.4748 0c-15.3579,0 -29.315,-6.32008 -39.4571,-16.5106 -10.1079,-10.1528 -16.3654,-24.1193 -16.3654,-39.4406l0 -57.7571c0,-15.3236 6.25749,-29.2878 16.3654,-39.4406 10.1421,-10.1894 24.0992,-16.5106 39.4571,-16.5106l57.4748 0c15.3591,0 29.3185,6.3189 39.4642,16.5095 10.1079,10.1539 16.3665,24.1158 16.3665,39.4418l0 57.7571c0,15.326 -6.25867,29.2878 -16.3665,39.4418 -10.1457,10.1906 -24.1051,16.5095 -39.4642,16.5095z"/>
    <path id="_527594848" class="fil4" d="M1249.21 1096.91l-57.4772 0c-15.3555,0 -29.3138,-6.32008 -39.4559,-16.5106 -10.1067,-10.1528 -16.3654,-24.1193 -16.3654,-39.4406l0 -57.7571c0,-15.3236 6.25867,-29.2878 16.3654,-39.4406 10.1421,-10.1894 24.1004,-16.5106 39.4559,-16.5106l57.4772 0c15.3591,0 29.3173,6.3189 39.463,16.5095 10.1079,10.1539 16.3665,24.1158 16.3665,39.4418l0 57.7571c0,15.326 -6.25867,29.2878 -16.3665,39.4418 -10.1457,10.1906 -24.104,16.5095 -39.463,16.5095z"/>
    <path id="_527608144" class="fil4" d="M1475.42 1096.91l-57.476 0c-15.3555,0 -29.3138,-6.32008 -39.4559,-16.5106 -10.1067,-10.1528 -16.3642,-24.1193 -16.3642,-39.4406l0 -57.7571c0,-15.3236 6.25749,-29.2878 16.3642,-39.4406 10.1421,-10.1894 24.1004,-16.5106 39.4559,-16.5106l57.476 0c15.3602,0 29.3197,6.3189 39.4642,16.5095 10.1079,10.1539 16.3665,24.1158 16.3665,39.4418l0 57.7571c0,15.326 -6.25867,29.2878 -16.3665,39.4418 -10.1445,10.1906 -24.104,16.5095 -39.4642,16.5095z"/>
   </g>
   <rect id="_527576752" class="fil5" x="900.479" y="460" width="640.002" height="231.999"/>
   <rect id="_527595736" class="fil6" x="919.302" y="479.999" width="602.357" height="192"/>
  </g>
 </g>
</svg>
