<svg xmlns="http://www.w3.org/2000/svg" viewBox="0 0 48 48"><defs><style>.cls-1{fill:#7c7d7d;}.cls-2{fill:#747575;}.cls-3{fill:#9fdbf3;}.cls-4{fill:#919191;}.cls-5{fill:#b2e5fb;}.cls-6{fill:#db5669;}.cls-7{fill:#f26674;}.cls-8{fill:#fc6;}</style></defs><title>Smart TV</title><g id="Smart_TV" data-name="Smart TV"><path class="cls-1" d="M9,43a1,1,0,0,1-.2-2l10-2a1,1,0,0,1,.4,2C8.51,43.12,9.15,43,9,43Z"/><path class="cls-2" d="M39,43c-.15,0,.57.13-10.2-2a1,1,0,0,1,.4-2l10,2A1,1,0,0,1,39,43Z"/><rect class="cls-3" x="1" y="7" width="46" height="26"/><rect class="cls-4" x="1" y="7" width="2" height="26"/><path class="cls-5" d="M47,7V31H27A24,24,0,0,1,3,7Z"/><rect class="cls-1" x="5" y="33" width="42" height="4"/><rect class="cls-6" x="1" y="33" width="4" height="4"/><path class="cls-7" d="M5,35H5a2,2,0,0,1-2-2H5Z"/><rect class="cls-1" x="19" y="37" width="10" height="4"/><polygon class="cls-2" points="19 37 19 38 28 38 28 41 29 41 29 37 19 37"/><path class="cls-8" d="M21.24,22.29a4,4,0,0,1,5.65-.23,1,1,0,0,1-1.35,1.47,2,2,0,0,0-2.83.11A1,1,0,0,1,21.24,22.29Z"/><path class="cls-8" d="M18.3,19.57a8,8,0,0,1,11.31-.46,1,1,0,0,1-1.36,1.47,6,6,0,0,0-8.48.35A1,1,0,0,1,18.3,19.57Z"/><path class="cls-8" d="M25.22,26a1,1,0,0,0-2,.09,1,1,0,0,0,2-.09"/><rect class="cls-4" x="5" y="33" width="42" height="2"/><rect class="cls-4" x="45" y="7" width="2" height="26"/><rect class="cls-4" x="1" y="7" width="46" height="2"/></g></svg>